<svg width="1600" height="1000" viewBox="0 0 1600 1000" fill="none" xmlns="http://www.w3.org/2000/svg">
  <rect width="1600" height="1000" rx="56" fill="#111827"/>
  <circle cx="1248" cy="208" r="236" fill="#F97316" fill-opacity="0.36"/>
  <circle cx="304" cy="796" r="304" fill="#FB923C" fill-opacity="0.24"/>
  <rect x="116" y="116" width="500" height="768" rx="40" fill="#FEF2F2" fill-opacity="0.08" stroke="#FDBA74"/>
  <rect x="286" y="166" width="160" height="520" rx="30" fill="#F8FAFC"/>
  <rect x="286" y="166" width="160" height="92" fill="#EA580C"/>
  <rect x="448" y="166" width="118" height="520" rx="30" fill="#FDBA74"/>
  <path d="M908 264C908 231.964 933.964 206 966 206H1320C1352.04 206 1378 231.964 1378 264V396H908V264Z" fill="#FFF7ED"/>
  <path d="M908 396H1378V674C1378 706.036 1352.04 732 1320 732H966C933.964 732 908 706.036 908 674V396Z" fill="#FFFFFF"/>
  <path d="M1002 330H1284" stroke="#FB923C" stroke-width="18" stroke-linecap="round"/>
  <path d="M1002 384H1244" stroke="#111827" stroke-opacity="0.2" stroke-width="18" stroke-linecap="round"/>
  <path d="M1002 440H1198" stroke="#111827" stroke-opacity="0.2" stroke-width="18" stroke-linecap="round"/>
  <text x="908" y="840" fill="#FFF7ED" font-family="Arial, sans-serif" font-size="72" font-weight="700">Summer Matchday Edit</text>
</svg>
