<svg width="960" height="540" viewBox="0 0 960 540" fill="none" xmlns="http://www.w3.org/2000/svg">
  <rect width="960" height="540" fill="#d6cbbd"/>
  <rect width="960" height="540" fill="url(#grain)" opacity=".2"/>
  <path d="M188 331c30-88 99-133 206-133 82 0 141 28 176 83 13 20 1 47-22 52l-314 66c-30 6-56-39-46-68Z" fill="#080C14"/>
  <path d="M568 291c42-63 103-94 184-94 65 0 115 21 150 62 17 21 10 53-15 63l-260 99c-32 12-78-62-59-130Z" fill="#ECE5D8"/>
  <path d="M247 399c101-18 207-40 318-67" stroke="#151B25" stroke-width="20" stroke-linecap="round"/>
  <path d="M632 421c80-29 160-59 239-90" stroke="#D7CCBC" stroke-width="20" stroke-linecap="round"/>
  <path d="M334 244c53-16 100-13 140 9" stroke="#202631" stroke-width="6" stroke-linecap="round"/>
  <path d="M725 242c43-10 82-7 116 10" stroke="#F7F1E8" stroke-width="6" stroke-linecap="round"/>
  <text x="281" y="302" fill="#F8FBFF" font-family="Arial, sans-serif" font-size="38" font-weight="800">LUMES</text>
  <path d="M795 285l31 22-31 22v-44Z" fill="#080C14"/>
  <path d="M803 299v16l11-8-11-8Z" fill="#ECE5D8"/>
  <defs>
    <filter id="noise">
      <feTurbulence type="fractalNoise" baseFrequency=".75" numOctaves="3" stitchTiles="stitch"/>
    </filter>
    <pattern id="grain" width="120" height="120" patternUnits="userSpaceOnUse">
      <rect width="120" height="120" filter="url(#noise)" opacity=".32"/>
    </pattern>
  </defs>
</svg>
